# Vectary OBJ Export units=mm
mtllib line.mtl
o 000_Box
g Box
usemtl Fiesta_57fa871d-24b6-46a3-8837-131b0c389dd8
v 81.500 -0.000 2.000
v -81.500 0.000 -2.000
v 81.500 0.000 -2.000
v -81.500 -0.000 2.000
v -81.500 4.000 2.000
v -81.500 4.000 -2.000
v 81.500 4.000 2.000
v 81.500 4.000 -2.000
vt 0.00000 0.00000
vt 1.00000 1.00000
vt 0.00000 1.00000
vt 1.00000 0.00000
vt 0.00000 0.00000
vt 1.00000 1.00000
vt 0.00000 1.00000
vt 1.00000 0.00000
vt 0.00000 0.00000
vt 1.00000 1.00000
vt 0.00000 1.00000
vt 1.00000 0.00000
vt 0.00000 0.00000
vt 1.00000 1.00000
vt 0.00000 1.00000
vt 1.00000 0.00000
vt 0.00000 0.00000
vt 1.00000 1.00000
vt 0.00000 1.00000
vt 1.00000 0.00000
vt 0.00000 0.00000
vt 1.00000 1.00000
vt 0.00000 1.00000
vt 1.00000 0.00000
vn 0.00000 -1.00000 -0.00000
vn 0.00000 -1.00000 -0.00000
vn 0.00000 -1.00000 -0.00000
vn 0.00000 -1.00000 -0.00000
vn -1.00000 0.00000 0.00000
vn -1.00000 0.00000 0.00000
vn -1.00000 0.00000 0.00000
vn -1.00000 0.00000 0.00000
vn 0.00000 -0.00000 1.00000
vn 0.00000 -0.00000 1.00000
vn 0.00000 -0.00000 1.00000
vn 0.00000 -0.00000 1.00000
vn 0.00000 0.00000 -1.00000
vn 0.00000 0.00000 -1.00000
vn 0.00000 0.00000 -1.00000
vn 0.00000 0.00000 -1.00000
vn 1.00000 0.00000 0.00000
vn 1.00000 0.00000 0.00000
vn 1.00000 0.00000 0.00000
vn 1.00000 0.00000 0.00000
vn 0.00000 1.00000 0.00000
vn 0.00000 1.00000 0.00000
vn 0.00000 1.00000 0.00000
vn 0.00000 1.00000 0.00000
f 3/3/3 1/1/1 4/4/4 2/2/2 
f 6/7/7 2/5/5 4/8/8 5/6/6 
f 5/11/11 4/9/9 1/12/12 7/10/10 
f 8/15/15 3/13/13 2/16/16 6/14/14 
f 7/19/19 1/17/17 3/20/20 8/18/18 
f 6/23/23 5/21/21 7/24/24 8/22/22 
